<svg xmlns="http://www.w3.org/2000/svg" width="240" height="240" fill="none"><rect width="240" height="240" fill="#0587FF" rx="120"/><path fill="#fff" d="M112.616 152.838c-5.928-2.273-12.046-5.684-16.413-10.742-9.214-10.93-10.052-22.701-10.052-27.746 0-25.223 17.591-39.516 37.695-39.516 10.052 0 20.105 3.363 26.806 10.93a33.583 33.583 0 0 1 4.883 6.186c1.57-.6 3.139-1.198 4.709-1.796 6.524-2.489 13.048-4.977 19.573-7.516-11.351-20.608-33.661-31.347-55.971-31.347-31.831 0-63.663 21.86-63.663 63.059 0 40.529 30.805 62.343 62.11 63.042 5.494-4.674 11.73-11.037 16.381-15.782 1.194-1.219 2.284-2.332 3.23-3.281-10.79 0-21.58-1.83-29.288-5.491Z"/><path fill="#fff" stroke="#fff" stroke-miterlimit="10" stroke-width="11.317" d="m142.958 188.708-5.092-4.992 22.067-24.131-23.765-22.467 5.093-4.993 28.857 27.46-27.16 29.123Z"/></svg>